<svg width="120" height="80" viewBox="0 0 120 80" fill="none" xmlns="http://www.w3.org/2000/svg">
<path d="M67.4902 32.5617C67.4902 33.5407 67.2415 34.6761 66.5227 35.6813H68.5545V19.9912H62.0601V26.4008C65.5721 27.4896 67.4902 29.7403 67.4902 32.5617Z" fill="#213E99"/>
<path d="M56.2636 25.8423C57.7277 25.8423 59.0924 26.1853 60.1354 26.4611C57.9263 26.0719 54.5005 26.6348 52.7316 28.0301V35.6812H59.2286V26.9764C60.3434 27.1778 61.4042 27.6083 62.3441 28.2406V35.6812H63.7559C62.4294 37.1809 59.9439 38.0938 57.8023 37.7579V38.0724C63.9758 38.5597 66.5917 35.6293 66.5917 32.3346C66.5917 28.4531 62.9518 26.1827 59.2286 25.7216V19.9911H52.7316V25.7855C48.5253 26.6286 44.4075 29.1264 44.4075 33.2675C44.4075 39.6402 53.3096 43.5878 61.0644 43.5878C72.8405 43.5878 81.9012 37.8984 81.9012 29.9056C81.9012 20.2346 68.8173 13.3333 58.5415 13.3333C46.7657 13.3333 38.0951 20.8142 38.0951 28.807C38.0951 32.9436 40.4201 36.412 43.3493 38.8294L43.5705 38.6805C41.2513 36.753 39.1582 33.7492 39.1582 29.6208C39.7704 20.8756 50.5493 15.9492 60.1422 15.9492C66.9247 15.9492 79.1121 17.5173 79.1121 28.8603C79.1121 34.7755 72.7904 42.4693 59.5105 42.4693C52.7109 42.4693 47.4296 38.8294 47.4296 33.593C47.43 29.0634 50.9775 25.8423 56.2636 25.8423ZM31.1059 66.3498V65.4557H33.3835V57.7286H27.3014V65.4557H29.637V66.3498H21.2502V65.4557H23.3815V49.7184H21.2502V48.8242H29.637V49.7184H27.3014V56.6927H33.3835V49.7184H31.1059V48.8242H39.4084V49.7184H37.2739V65.4557H39.4084V66.3498H31.1059ZM42.624 48.8242H46.4296V50.9009H42.624V48.8242ZM40.7521 66.3498V65.4557H42.7977V54.6777H40.7521V53.7839H46.5736V65.4557H48.4775V66.3498H40.7521ZM49.2971 66.3498V65.4557H51.4008V47.4121H49.2971V46.5205H55.2051V65.4557H57.193V66.3498H49.2971ZM63.1149 66.3498C61.0405 66.3498 59.9177 65.2832 59.9177 63.6393V54.6777H57.8695V53.7836H59.9177V48.7981C61.0715 48.7981 62.2799 48.8242 63.4624 48.7981V53.7836H66.4022V54.6777H63.4624V65.4557H66.4613V66.3498H63.1149ZM81.099 59.7769C80.7823 55.0206 76.8065 53.3793 74.0653 53.3793C70.9837 53.3793 66.833 55.3093 66.833 59.978C66.833 63.3532 69.3117 66.6666 74.1531 66.6666C78.5051 66.6666 80.2953 63.7552 80.7257 62.5727C81.0706 61.7092 81.1581 60.6994 81.099 59.7769ZM74.0653 65.9455C72.7407 65.9455 71.9344 65.2832 71.5582 64.5618C71.3289 64.1291 71.0121 63.4975 71.0121 59.9215C71.0121 57.2701 71.069 54.2143 74.0369 54.2143C75.2194 54.2143 76.1113 54.7042 76.6031 55.8015C76.7755 56.2035 76.979 56.6078 77.0051 59.8053C77.0335 62.7477 77.0335 65.9455 74.0653 65.9455ZM91.2573 66.3498V65.4557H92.9297V58.0483C92.9297 56.3759 92.9297 54.7345 91.0849 54.7345C90.0464 54.7345 88.3462 55.7705 87.9416 57.4732C87.7973 57.9911 87.8257 58.5401 87.8257 59.9212V65.4557H89.7277V66.3498H82.0055V65.4557H84.0511V54.6777H82.0055V53.7836H87.8257V55.6852C88.4599 54.8789 88.9801 54.2993 90.2195 53.812C90.9405 53.5087 91.7147 53.3519 92.497 53.3509C92.7266 53.3509 93.4173 53.3509 94.2236 53.5801C96.6455 54.2993 96.7614 56.1463 96.7614 57.4732V65.4557H98.7499V66.3498H91.2573Z" fill="#213E99"/>
</svg>
