<svg width="120" height="80" viewBox="0 0 120 80" fill="none" xmlns="http://www.w3.org/2000/svg">
<path d="M42.1746 60.8737V60.1779H39.6565V55.2412H38.8613V60.8737H42.1746Z" fill="#0E7755"/>
<path d="M91.94 55.9039V60.8737H92.7352V55.9039H94.6569V55.2412H90.0183V55.9039H91.94Z" fill="#0E7755"/>
<path d="M96.2803 59.6145C96.2803 59.6145 96.8766 60.2109 97.705 60.2109C98.2351 60.2109 98.6658 59.9127 98.6658 59.3826C98.6658 58.1567 95.9489 58.4217 95.9489 56.6988C95.9489 55.8374 96.711 55.1416 97.7712 55.1416C98.8315 55.1416 99.3616 55.7049 99.3616 55.7049L98.9971 56.3675C98.9971 56.3675 98.467 55.8705 97.7712 55.8705C97.1748 55.8705 96.7441 56.235 96.7441 56.6988C96.7441 57.8585 99.461 57.5603 99.461 59.3826C99.461 60.244 98.7983 60.973 97.6718 60.973C96.4791 60.973 95.8164 60.244 95.8164 60.244L96.2803 59.6145Z" fill="#0E7755"/>
<path d="M19.7107 32.7773H13.8462V49.5756H15.7679V43.1147H19.7107C22.8583 43.1147 24.9456 41.0274 24.9456 37.9129C24.9456 34.8316 22.8251 32.7773 19.7107 32.7773ZM15.7679 34.5334H19.5119C21.6655 34.5334 22.9908 35.8255 22.9908 37.9129C22.9908 40.0334 21.6655 41.3587 19.4787 41.3587H15.7679V34.5334Z" fill="#0E7755"/>
<path d="M33.8585 32.7773L27.6958 49.5756H29.7169L31.6055 44.3075H38.0332L39.9218 49.5756H41.9429L35.8133 32.7773H33.8585ZM37.3374 42.7171L32.0693 42.5515L34.3886 36.8195C34.5874 36.3225 34.8193 35.5936 34.9519 35.0966C35.0513 35.5605 35.2501 36.3225 35.4157 36.8195L37.3374 42.7171Z" fill="#0E7755"/>
<path d="M54.3674 42.1869C56.2229 41.5905 57.4157 39.8344 57.4157 37.6477C57.4157 35.6266 56.4548 33.9699 54.8313 33.2742C54.1687 32.976 53.4066 32.8103 51.6837 32.8103H46.6807V49.6086H48.6024V42.6507H52.5452L56.2891 49.6086H58.4759L54.765 42.7501C54.5662 42.4851 54.4668 42.2863 54.3674 42.1869ZM55.494 37.6808C55.494 39.6688 54.3012 40.8947 52.3795 40.8947H48.6024V34.5332H51.7831C53.0753 34.5332 53.6054 34.6657 54.0693 34.9308C54.997 35.3947 55.494 36.3886 55.494 37.6808Z" fill="#0E7755"/>
<path d="M72.458 32.7773L68.0183 39.9671H65.4339V32.7773H63.5122V49.5756H65.4339V41.69H68.0183L72.7231 49.5756H74.9761L69.6086 40.7623L74.6448 32.7773H72.458Z" fill="#0E7755"/>
<path d="M14.6414 57.6933V55.2415H13.8462V60.874H14.6414V58.389H17.557V60.874H18.3522V55.2415H17.557V57.6933H14.6414Z" fill="#0E7755"/>
<path d="M23.1897 55.1416C24.8132 55.1416 26.0722 56.4006 26.0722 58.0242C26.0722 59.6808 24.8132 60.973 23.1897 60.973C21.5662 60.973 20.3071 59.6808 20.3071 58.0242C20.3071 56.4006 21.5662 55.1416 23.1897 55.1416ZM23.1897 60.244C24.3493 60.244 25.277 59.2832 25.277 58.0242C25.277 56.7982 24.3493 55.8705 23.1897 55.8705C22.03 55.8705 21.1023 56.7982 21.1023 58.0242C21.1023 59.2832 22.0632 60.244 23.1897 60.244Z" fill="#0E7755"/>
<path d="M29.1536 55.9041V60.874H29.9488V55.9041H31.9037V55.2415H27.2319V55.9041H29.1536Z" fill="#0E7755"/>
<path d="M36.9066 60.874V60.1782H34.2891V58.3559H36.3102V57.6933H34.2891V55.9041H36.774V55.2415H33.4939V60.874H36.9066Z" fill="#0E7755"/>
<path d="M43.8975 59.6145C43.8975 59.6145 44.4938 60.2109 45.3222 60.2109C45.8523 60.2109 46.283 59.9127 46.283 59.3826C46.283 58.1567 43.5661 58.4217 43.5661 56.6988C43.5661 55.8374 44.3282 55.1416 45.3884 55.1416C46.4487 55.1416 46.9788 55.7049 46.9788 55.7049L46.6143 56.3675C46.6143 56.3675 46.0842 55.8705 45.3884 55.8705C44.792 55.8705 44.3613 56.235 44.3613 56.6988C44.3613 57.8585 47.0782 57.5603 47.0782 59.3826C47.0782 60.244 46.4155 60.973 45.289 60.973C44.0962 60.973 43.4336 60.244 43.4336 60.244L43.8975 59.6145Z" fill="#0E7755"/>
<path d="M53.0421 57.8258C53.0421 57.8258 52.3132 57.5607 52.3132 56.5667C52.3132 55.639 53.0421 55.1089 54.0361 55.1089C54.3343 55.1089 54.7319 55.2083 54.7319 55.2083L54.5331 55.8378C54.5331 55.8378 54.3011 55.8047 54.1023 55.8047C53.5391 55.8047 53.1083 56.1029 53.1083 56.6661C53.1083 57.0306 53.274 57.5607 54.1355 57.5607H55.1957V56.7987H55.9578V57.5607H56.7198V58.2565H55.9578V59.0185C55.9578 60.2776 55.2289 61.0065 54.0029 61.0065C52.8433 61.0065 52.0481 60.2776 52.0481 59.3167C52.0481 58.6541 52.4126 58.0577 53.0421 57.8258ZM54.0029 60.2444C54.7319 60.2444 55.1626 59.8469 55.1626 58.9523V58.2234H54.0692C53.274 58.2234 52.8102 58.5878 52.8102 59.2173C52.8433 59.7806 53.3071 60.2444 54.0029 60.2444Z" fill="#0E7755"/>
<path d="M61.0271 55.2415H62.75C63.3464 55.2415 63.5783 55.2746 63.8102 55.374C64.3735 55.5728 64.7711 56.1692 64.7711 56.8981C64.7711 57.627 64.3735 58.2234 63.744 58.4222C63.744 58.4222 63.8102 58.4884 63.9096 58.6872L65.1024 60.874H64.2078L63.0151 58.621H61.8223V60.874H61.0271V55.2415ZM62.9488 57.9252C63.5783 57.9252 63.9428 57.5276 63.9428 56.8981C63.9428 56.4674 63.7771 56.2023 63.4789 56.0366C63.3132 55.9704 63.1476 55.9041 62.7169 55.9041H61.8223V57.9252H62.9488Z" fill="#0E7755"/>
<path d="M70.3375 60.874V60.1782H67.72V58.3559H69.7411V57.6933H67.72V55.9041H70.205V55.2415H66.9248V60.874H70.3375Z" fill="#0E7755"/>
<path d="M89.3888 46.8586V43.4128L91.94 44.6718V48.1176L89.3888 46.8586ZM92.7352 44.6718L95.2864 43.4128V46.8586L92.7352 48.1176V44.6718ZM86.0424 45.1688V41.723L88.5936 42.982V46.4278L86.0424 45.1688ZM96.0816 43.0152L98.6328 41.7561V45.2019L96.0816 46.461V43.0152ZM82.696 43.5122V40.0664L85.2472 41.3254V44.7712L82.696 43.5122ZM99.428 41.3254L101.979 40.0664V43.5122L99.428 44.7712V41.3254ZM89.3888 42.5182V39.0724L91.94 40.3314V43.7772L89.3888 42.5182ZM92.7352 40.3646L95.2864 39.1055V42.5513L92.7352 43.8104V40.3646ZM79.3496 41.8224V38.4097L81.9008 39.6688V43.1146L79.3496 41.8224ZM102.807 39.6688L105.359 38.4097V41.8555L102.807 43.1146V39.6688ZM86.0424 40.8616V37.4158L88.5936 38.6748V42.1206L86.0424 40.8616ZM96.0816 38.6748L98.6328 37.4158V40.8616L96.0816 42.1206V38.6748ZM82.696 39.1718V35.7591L85.2472 37.0182V40.464L82.696 39.1718ZM99.428 37.0182L101.979 35.7591V39.2049L99.428 40.464V37.0182ZM89.3888 38.2109V34.7651L91.94 36.0242V39.47L89.3888 38.2109ZM92.7352 36.0242L95.2864 34.7651V38.2109L92.7352 39.47V36.0242ZM79.3496 37.5151V34.0693L81.9008 35.3284V38.7742L79.3496 37.5151ZM102.807 35.3615L105.359 34.1025V37.5483L102.807 38.8073V35.3615ZM86.0424 36.5212V33.0754L88.5936 34.3344V37.7802L86.0424 36.5212ZM96.0816 34.3675L98.6328 33.1085V36.5543L96.0816 37.8133V34.3675ZM82.696 34.8645V31.4187L85.2472 32.6778V36.1236L82.696 34.8645ZM99.428 32.6778L101.979 31.4187V34.8645L99.428 36.1236V32.6778ZM89.3888 33.8706V30.4248L91.94 31.6838V35.1296L89.3888 33.8706ZM92.7352 31.7169L95.2864 30.4579V33.9037L92.7352 35.1627V31.7169ZM86.0424 32.2139V28.7681L88.5936 30.0272V33.473L86.0424 32.2139ZM96.0816 30.0272L98.6328 28.7681V32.2139L96.0816 33.473V30.0272ZM82.696 30.5241V27.0783L85.2472 28.3374V31.7832L82.696 30.5241ZM99.428 28.3705L101.979 27.1115V30.5573L99.428 31.8163V28.3705ZM89.3888 29.5302V26.1175L91.94 27.3765V30.8223L89.3888 29.5302ZM92.7352 27.3765L95.2864 26.1175V29.5633L92.7352 30.8223V27.3765ZM86.0424 27.8735V24.4277L88.5936 25.6868V29.1326L86.0424 27.8735ZM96.0816 25.7199L98.6328 24.4609V27.9067L96.0816 29.1657V25.7199ZM89.3888 25.2229V21.7771L91.94 23.0362V26.482L89.3888 25.2229ZM92.7352 23.0693L95.2864 21.8102V25.256L92.7352 26.5151V23.0693ZM89.8858 21.1476L92.3376 19.9217L94.7894 21.1476L92.3376 22.3735L89.8858 21.1476ZM92.3376 19.0271L88.5936 20.8825V24.8253L85.2472 23.1687V27.5091L81.9008 25.8524V34.5001L78.5544 32.8434V42.3857L91.9731 49.0785V53.1538H92.7683V49.0122L106.187 42.3194V32.7772L102.841 34.4338V25.8193L99.4942 27.4759V23.1687L96.1478 24.8253V20.8825L92.3376 19.0271Z" fill="#0E7755"/>
<path d="M72.3254 59.6145C72.3254 59.6145 72.9218 60.2109 73.7502 60.2109C74.2803 60.2109 74.711 59.9127 74.711 59.3826C74.711 58.1567 71.9941 58.4217 71.9941 56.6988C71.9941 55.8374 72.7562 55.1416 73.8164 55.1416C74.8767 55.1416 75.4068 55.7049 75.4068 55.7049L75.0424 56.3675C75.0424 56.3675 74.5122 55.8705 73.8164 55.8705C73.22 55.8705 72.7893 56.235 72.7893 56.6988C72.7893 57.8585 75.5062 57.5603 75.5062 59.3826C75.5062 60.244 74.8436 60.973 73.717 60.973C72.5242 60.973 71.8616 60.244 71.8616 60.244L72.3254 59.6145Z" fill="#0E7755"/>
<path d="M79.979 55.1416C81.6025 55.1416 82.8616 56.4006 82.8616 58.0242C82.8616 59.6808 81.6025 60.973 79.979 60.973C78.3555 60.973 77.0964 59.6808 77.0964 58.0242C77.0964 56.4006 78.3555 55.1416 79.979 55.1416ZM79.979 60.244C81.1387 60.244 82.0664 59.2832 82.0664 58.0242C82.0664 56.7982 81.1387 55.8705 79.979 55.8705C78.8194 55.8705 77.8916 56.7982 77.8916 58.0242C77.8916 59.2832 78.8194 60.244 79.979 60.244Z" fill="#0E7755"/>
<path d="M84.8164 55.2415H86.5393C87.1357 55.2415 87.3676 55.2746 87.5996 55.374C88.1628 55.5728 88.5604 56.1692 88.5604 56.8981C88.5604 57.627 88.1628 58.2234 87.5333 58.4222C87.5333 58.4222 87.5995 58.4884 87.6989 58.6872L88.8917 60.874H87.9971L86.8044 58.621H85.6116V60.874H84.8164V55.2415ZM86.7381 57.9252C87.3676 57.9252 87.7321 57.5276 87.7321 56.8981C87.7321 56.4674 87.5664 56.2023 87.2682 56.0366C87.1026 55.9704 86.9369 55.9041 86.5062 55.9041H85.6116V57.9252H86.7381Z" fill="#0E7755"/>
</svg>
