<svg width="120" height="80" viewBox="0 0 120 80" fill="none" xmlns="http://www.w3.org/2000/svg">
<path d="M61.3953 41.4188L57.8932 32.6133L54.4114 41.3603C56.7392 41.2841 59.0691 41.3036 61.3953 41.4188ZM90.4604 50.3464C82.9553 47.0828 74.515 44.6659 64.5975 43.85L67.6173 51.1841H65.2799L62.299 43.6925C59.3732 43.5264 56.4411 43.5031 53.513 43.6227L50.5036 51.1841H48.1646L51.2265 43.7435C40.7068 44.4334 31.7476 46.9261 23.878 50.3442V49.8823C29.1304 46.9509 34.3243 44.7626 39.9314 43.3333V38.8316L33.6171 29.1374H35.9628L40.9737 37.1923L45.9869 29.1382H48.3304L42.0169 38.8316L42.0154 42.8399C45.225 42.1432 48.5786 41.6827 52.1654 41.4645L57.3698 28.8165H58.4129L63.6586 41.565C67.1794 41.8462 70.4798 42.3644 73.6436 43.1225V30.824H68.4842V29.1374H80.9373V30.8247H75.7801V43.6767C80.8675 45.0978 85.6415 47.1646 90.4604 49.8867V50.3464ZM98.8039 29.1374H86.3524V30.8247H91.5118V46.0255H93.646V30.8247H98.8039V29.1374ZM27.3231 46.0255L25.1881 46.027V37.694H15.9807V46.0255H13.8457V29.1374H15.9807V36.0089H25.1881V29.1374H27.3231V46.0255ZM104.436 30.4528C104.335 30.3928 104.17 30.3628 103.943 30.3628H103.595V31.2087H103.963C104.138 31.2087 104.266 31.19 104.353 31.1562C104.427 31.1296 104.491 31.0798 104.534 31.0142C104.577 30.9487 104.598 30.871 104.594 30.7925C104.594 30.6238 104.54 30.5113 104.436 30.4528ZM103.997 30.0876C104.283 30.0876 104.494 30.1154 104.63 30.1693C104.87 30.2698 104.988 30.4678 104.988 30.7587C104.988 30.965 104.913 31.1187 104.763 31.2177C104.66 31.2769 104.545 31.3144 104.427 31.328C104.612 31.3564 104.742 31.4322 104.828 31.5552C104.904 31.6608 104.947 31.7866 104.952 31.9166V32.0854C104.952 32.1401 104.954 32.1979 104.958 32.2571C104.958 32.2989 104.964 32.3405 104.978 32.3801L104.993 32.4086H104.612L104.605 32.3861C104.603 32.3778 104.603 32.3673 104.601 32.3583L104.591 32.2833V32.0989C104.591 31.8319 104.516 31.6549 104.371 31.5687C104.283 31.5199 104.134 31.4937 103.916 31.4937H103.595V32.4086H103.184V30.0876H103.997ZM102.754 29.9676C102.582 30.135 102.447 30.3358 102.356 30.5574C102.264 30.7791 102.219 31.017 102.223 31.2567C102.223 31.7629 102.398 32.1941 102.751 32.5518C102.916 32.725 103.116 32.8621 103.338 32.9542C103.559 33.0464 103.797 33.0917 104.037 33.0872C104.541 33.0872 104.97 32.9102 105.325 32.5518C105.678 32.1948 105.854 31.7629 105.854 31.2567C105.858 31.0171 105.813 30.7793 105.722 30.5575C105.631 30.3358 105.496 30.1349 105.325 29.9669C105.158 29.7953 104.957 29.6596 104.736 29.568C104.514 29.4765 104.276 29.431 104.037 29.4344C103.798 29.4309 103.561 29.4764 103.341 29.568C103.12 29.6595 102.921 29.7953 102.754 29.9669L102.754 29.9676ZM105.532 32.7528C105.339 32.954 105.107 33.1131 104.85 33.2203C104.592 33.3274 104.315 33.3801 104.037 33.3752C103.452 33.3752 102.953 33.169 102.541 32.7528C102.343 32.5574 102.186 32.3239 102.081 32.0663C101.976 31.8088 101.924 31.5326 101.929 31.2544C101.929 30.6733 102.135 30.1746 102.548 29.7621C102.959 29.3512 103.456 29.145 104.037 29.145C104.623 29.145 105.121 29.3512 105.532 29.7629C105.733 29.9553 105.892 30.1871 105.998 30.4438C106.105 30.7005 106.158 30.9765 106.153 31.2544C106.153 31.8379 105.947 32.3373 105.532 32.7528Z" fill="#4B77A9"/>
</svg>
