<svg width="120" height="80" viewBox="0 0 120 80" fill="none" xmlns="http://www.w3.org/2000/svg">
<path d="M27.421 30.3599V49.6399H33.1333V34.6445L27.421 30.3599ZM25.1585 32.0514V49.6399H26.3462V31.1495L25.1585 32.0514ZM22.8961 49.6399H24.0837V32.897L22.8961 33.7424V49.6399ZM20.6335 49.6399H21.8213V34.5884L20.6335 35.4903V49.6399ZM34.2079 38.9853V49.6399H39.9213V43.2696L34.2079 38.9853ZM18.371 40.6766V49.6399H19.5589V39.8309L18.371 40.6766ZM16.1086 49.6399H17.2964V41.5223L16.1086 42.368V49.6399ZM13.8462 49.6399H15.034V43.2133L13.8462 44.1153V49.6399Z" fill="#EB0029"/>
<path d="M54.6261 41.0709C52.9309 41.0709 51.8561 40.1127 51.8561 38.2523V34.6443H53.2688V38.2523C53.2688 39.2668 53.7785 39.8307 54.6833 39.8307C55.5309 39.8307 56.0406 39.267 56.0406 38.2523V34.6443H57.4551V38.1959C57.4551 40.169 56.3231 41.0709 54.6261 41.0709ZM61.6395 41.0709C60.6793 41.0709 59.7172 40.7328 58.9822 40.0564L59.7745 39.098C60.3395 39.5489 60.9618 39.8307 61.6968 39.8307C62.2619 39.8307 62.6015 39.6053 62.6015 39.267V39.2106C62.6015 38.8724 62.3763 38.7032 61.3016 38.4214C60.057 38.0832 59.2075 37.6886 59.2075 36.4485C59.2075 35.2644 60.1122 34.5317 61.4143 34.5317C62.3763 34.5317 63.1667 34.8136 63.789 35.3208L63.054 36.392C62.5463 35.9973 61.9792 35.7718 61.4143 35.7718C60.9046 35.7718 60.6221 35.9973 60.6221 36.3355C60.6221 36.7301 60.9046 36.8994 61.9792 37.1812C63.2813 37.5193 64.0162 37.9705 64.0162 39.098C64.0162 40.3943 63.054 41.0709 61.6395 41.0709ZM69.8975 41.0147V38.4214H67.2957V41.0149H65.883V34.6446H67.2957V37.1249H69.8975V34.6443H71.3121V41.0146L69.8975 41.0147ZM94.2193 41.0147L91.2223 37.0122V41.0147H89.865V34.6445H91.1651L94.164 38.7032V34.6443H95.5213V41.0146L94.2193 41.0147ZM66.7878 49.6397L64.8083 46.9338L64.0734 47.723V49.6397H62.6589V43.2695H64.0734V46.0881L66.6753 43.2695H68.3704L65.7686 45.9755L68.4849 49.6397H66.7878ZM70.0673 49.6397V43.2695H74.8187V44.5097H71.4246V45.8064H74.4236V47.0464H71.4246V48.3995H74.8761V49.6397H70.0673ZM83.6419 49.6397H84.9993V43.2696H83.6419V49.6397ZM87.0932 49.6397V43.2695H91.8446V44.5097H88.5078V45.8064H91.4475V47.0464H88.5078V48.3995H91.9V49.6397H87.0932ZM93.9942 49.6397V43.2695H95.4067V48.3995H98.5756V49.6397H93.9942ZM102.76 49.6397H100.271V43.2695H102.76C104.797 43.2695 106.154 44.6789 106.154 46.4264V46.4828C106.154 48.2868 104.797 49.6397 102.76 49.6397ZM104.684 46.4828C104.684 45.3553 103.892 44.5661 102.76 44.5661H101.685V48.3995H102.76C103.892 48.3995 104.684 47.6103 104.684 46.4828ZM47.7272 39.8307C46.5378 39.8307 45.7476 38.9289 45.7476 37.8576V37.8013C45.7476 36.7301 46.4825 35.8282 47.6126 35.8282C48.2349 35.7718 48.8019 36.0538 49.197 36.5047L50.1019 35.4335C49.4796 34.8699 48.632 34.4752 47.6126 34.5317C45.633 34.5317 44.2205 36.0538 44.2757 37.8576C44.3331 39.718 45.7476 41.1273 47.7272 41.0709C48.7446 41.0709 49.6494 40.6201 50.2144 39.9434L49.2543 39.0415C48.9145 39.4925 48.3495 39.7742 47.7272 39.8306V39.8307ZM78.4382 34.6443H79.9653V41.0146H78.6081V36.8431L76.7983 39.5491H76.743L74.9315 36.8431V41.0149H73.6314V34.6446H75.1013L76.7983 37.2942L78.4382 34.6443ZM84.2088 34.6443L81.4925 41.0146H82.9643L83.5293 39.5489H86.2438L86.8107 41.0147H88.2806L85.5661 34.6445L84.2088 34.6443ZM84.039 38.3087L84.8866 36.2792L85.7361 38.3087H84.039ZM57.058 43.2693L54.3436 49.6397H55.7581L56.3804 48.2304H59.0395L59.6599 49.6397H61.0744L58.36 43.2695L57.058 43.2693ZM56.8328 46.9902L57.6803 44.9044L58.5299 46.9902H56.8328ZM78.2701 44.5661V45.919H81.2672V47.2156H78.2701V49.6397H76.8556V43.2695H81.7195V44.5661H78.2701ZM52.8165 43.2693L51.3464 47.723L49.8767 43.2695H48.5174L47.0477 47.723L45.5776 43.2695H44.0505L46.368 49.6397H47.7825L49.197 45.2989L50.6668 49.6397H52.0242L54.3436 43.2695L52.8165 43.2693ZM104.457 39.436L105.192 38.5906L104.344 37.6886L103.665 38.4214L102.873 37.4631C103.382 37.1812 103.722 36.6174 103.722 36.0538C103.665 35.1519 102.987 34.5317 102.082 34.5317C101.63 34.5317 101.233 34.7008 100.95 34.9826C100.668 35.2644 100.498 35.659 100.498 36.1101C100.555 36.6174 100.838 37.0122 101.063 37.294C100.328 37.5758 99.763 38.3652 99.8183 39.1544C99.8755 40.2252 100.78 41.1273 101.912 41.1273C102.535 41.1273 103.212 40.7891 103.665 40.2819L104.232 41.0146H105.872L104.457 39.436ZM102.93 39.3797C102.59 39.7742 102.252 39.9434 101.912 39.9434C101.46 39.9434 101.063 39.6053 101.063 39.098C101.008 38.8159 101.233 38.4214 101.855 38.1394L102.93 39.3797ZM102.138 36.7301C101.968 36.561 101.743 36.3356 101.685 36.1101C101.685 35.8847 101.798 35.659 102.138 35.6028C102.42 35.6028 102.59 35.8282 102.59 36.11C102.59 36.3918 102.307 36.6173 102.138 36.7301Z" fill="#717271"/>
</svg>
