<svg width="120" height="80" viewBox="0 0 120 80" fill="none" xmlns="http://www.w3.org/2000/svg">
<path d="M103.779 36.4624C103.694 36.4624 103.626 36.3907 103.626 36.3077V35.2692H103.329C103.256 35.2692 103.194 35.208 103.194 35.1341C103.194 35.0579 103.257 34.9981 103.329 34.9981H104.228C104.3 34.9981 104.362 35.0579 104.362 35.1341C104.362 35.208 104.3 35.2692 104.228 35.2692H103.93V36.3077C103.93 36.3907 103.862 36.4624 103.779 36.4624H103.779ZM106 36.4624C105.917 36.4624 105.849 36.3907 105.849 36.3077V35.4042L105.463 36.4057C105.45 36.4384 105.418 36.4623 105.381 36.4623C105.345 36.4623 105.313 36.4394 105.3 36.4057L104.913 35.4042V36.3077C104.913 36.3907 104.848 36.4624 104.765 36.4624C104.679 36.4624 104.61 36.3907 104.61 36.3077V35.2346C104.61 35.0949 104.722 34.9821 104.858 34.9821C104.965 34.9821 105.054 35.0501 105.091 35.146L105.381 35.9017L105.674 35.146C105.707 35.0501 105.8 34.9821 105.905 34.9821C106.043 34.9821 106.154 35.0953 106.154 35.2346V36.3077C106.154 36.3908 106.086 36.4624 106 36.4624L106 36.4624ZM24.764 34.5412C24.764 34.022 24.9256 33.5408 25.1991 33.1416C24.3763 33.3839 23.7717 34.1362 23.7717 35.0373V36.6251L24.764 36.6748V34.5412ZM23.7715 45.459C23.7715 46.3602 24.3761 47.1125 25.2 47.3548C24.9254 46.9556 24.7639 46.4744 24.7639 45.9552V42.9772H23.7715L23.7715 45.459ZM26.2529 42.9777H25.2605V45.9558C25.2605 46.8569 25.8651 47.6092 26.6879 47.8515C26.4144 47.4523 26.2529 46.9711 26.2529 46.4519V42.9777ZM26.2529 34.0448C26.2529 33.5256 26.4144 33.0444 26.6879 32.6452C25.8651 32.8876 25.2605 33.6398 25.2605 34.541V36.6998L26.2529 36.7495V34.0448ZM15.0635 33.4092C14.3377 33.8418 13.8462 34.6276 13.8462 35.5333V44.9626C13.8462 45.8696 14.3377 46.6542 15.0635 47.0869C14.9148 46.728 14.8383 46.3434 14.8385 45.9549V34.5411C14.8385 34.1407 14.9193 33.7588 15.0635 33.4092L15.0635 33.4092ZM16.3275 33.5487C16.3275 33.1483 16.4083 32.7664 16.5525 32.4167C15.8267 32.8495 15.3352 33.6341 15.3352 34.541V45.956C15.3352 47.0222 16.0113 47.9233 16.9563 48.2741C16.564 47.7699 16.3275 47.1387 16.3275 46.4521V33.5487Z" fill="#EE2841"/>
<path d="M28.7343 32.0598C27.6381 32.0598 26.7496 32.9483 26.7496 34.0444V37.2706L21.7869 37.0226V33.5484C21.7869 32.1788 20.6758 31.0676 19.305 31.0676C17.9342 31.0676 16.8242 32.1788 16.8242 33.5484V46.4519C16.8242 47.8227 17.9342 48.9327 19.305 48.9327C20.6758 48.9327 21.7869 47.8227 21.7869 46.4519V42.4816H26.7496V46.4519C26.7496 47.5481 27.6381 48.4365 28.7343 48.4365C29.8304 48.4365 30.7189 47.5481 30.7189 46.4519V34.0446C30.7189 32.9484 29.8304 32.0599 28.7343 32.0599V32.0598ZM45.8693 44.1459V40.4709H40.5086V44.1459C40.5086 44.5382 40.1889 44.8717 39.7966 44.8717C39.3905 44.8717 39.0559 44.5382 39.0559 44.1459V35.7632C39.0559 35.3709 39.3905 35.0374 39.7828 35.0374C40.1889 35.0374 40.5086 35.3709 40.5086 35.7632V39.1774H45.8693V35.7632C45.8693 35.3709 46.1889 35.0374 46.5963 35.0374C47.0024 35.0374 47.322 35.3709 47.322 35.7632V44.1459C47.322 44.5382 47.0024 44.8717 46.5963 44.8717C46.1889 44.8717 45.8693 44.5382 45.8693 44.1459ZM48.3487 41.2838C48.3487 39.2645 49.7148 37.6088 51.8933 37.6088C54.0867 37.6088 55.4379 39.2645 55.4379 41.2838C55.4379 43.318 54.0868 44.9738 51.8933 44.9738C49.7148 44.9738 48.3487 43.318 48.3487 41.2838V41.2838ZM54.0729 41.2838C54.0729 39.9615 53.3021 38.7707 51.8933 38.7707C50.4983 38.7707 49.7148 39.9615 49.7148 41.2838C49.7148 42.6199 50.4983 43.8119 51.8933 43.8119C53.3021 43.8119 54.0729 42.6199 54.0729 41.2838ZM63.0376 37.6086C65.1445 37.6086 66.4519 39.2505 66.4519 41.0955C66.4519 41.4878 66.1749 41.7197 65.6811 41.7197H60.9019C61.0034 42.9105 61.8757 43.8994 63.2845 43.8994C63.8799 43.8994 64.5053 43.71 65.028 43.3317C65.1007 43.2741 65.2022 43.26 65.3188 43.26C65.6095 43.26 65.8415 43.4919 65.8415 43.7827C65.8415 43.9708 65.7538 44.1162 65.6096 44.2188C64.9115 44.7266 64.083 44.9735 63.1542 44.9735C61.0622 44.9735 59.5218 43.4919 59.5218 41.2835C59.5218 39.2504 60.9895 37.6085 63.0376 37.6085V37.6086ZM60.888 40.7758H65.1734C65.1446 39.8458 64.5192 38.6839 63.0376 38.6839C61.6288 38.6839 60.9596 39.8169 60.888 40.7758ZM67.2838 44.2184V35.6903C67.2838 35.328 67.5746 35.0372 67.9381 35.0372C68.2865 35.0372 68.5911 35.328 68.5911 35.6903V44.2184C68.5911 44.5818 68.2865 44.8726 67.9381 44.8726C67.852 44.8729 67.7668 44.8563 67.6873 44.8235C67.6077 44.7908 67.5355 44.7426 67.4746 44.6818C67.4138 44.6209 67.3656 44.5487 67.3329 44.4691C67.3001 44.3896 67.2835 44.3044 67.2838 44.2184ZM69.432 43.7244C69.432 43.4049 69.6789 43.1579 69.9985 43.1579C70.115 43.1579 70.2304 43.2017 70.3181 43.2593C70.8558 43.6516 71.5527 43.9274 72.2935 43.9274C73.2812 43.9274 73.8039 43.5212 73.8039 42.9247C73.8039 42.2277 73.0054 41.9958 72.1043 41.7927C70.9135 41.5157 69.5197 41.1962 69.5197 39.6858C69.5197 38.5677 70.4773 37.6089 72.192 37.6089C73.1658 37.6089 73.9354 37.8984 74.5308 38.3347C74.6612 38.4361 74.7627 38.5816 74.7627 38.7708C74.7627 39.0603 74.5158 39.3074 74.2262 39.3074C74.1246 39.3074 74.0081 39.2645 73.9354 39.206C73.4854 38.8725 72.8751 38.6694 72.207 38.6694C71.3208 38.6694 70.7681 39.0179 70.7681 39.5844C70.7681 40.1948 71.5239 40.3979 72.395 40.601C73.6158 40.8767 75.0685 41.2114 75.0685 42.8233C75.0685 44.029 74.0808 44.9741 72.2358 44.9741C71.262 44.9741 70.3908 44.7271 69.6789 44.1894C69.5335 44.088 69.432 43.9137 69.432 43.7244ZM76.7837 43.1433C77.2776 43.1433 77.6987 43.5506 77.6987 44.0445C77.6987 44.5384 77.2775 44.9595 76.7837 44.9595C76.2898 44.9595 75.8825 44.5383 75.8825 44.0445C75.8825 43.5506 76.2898 43.1433 76.7837 43.1433ZM84.4864 41.2838C84.4864 39.2645 85.8514 37.6088 88.031 37.6088C90.2245 37.6088 91.5756 39.2645 91.5756 41.2838C91.5756 43.318 90.2245 44.9738 88.031 44.9738C85.8514 44.9738 84.4864 43.318 84.4864 41.2838V41.2838ZM90.2106 41.2838C90.2106 39.9615 89.4399 38.7707 88.031 38.7707C86.636 38.7707 85.8514 39.9615 85.8514 41.2838C85.8514 42.6199 86.636 43.8119 88.031 43.8119C89.4399 43.8119 90.2106 42.6199 90.2106 41.2838ZM102.393 39.7293V44.219C102.393 44.5813 102.087 44.872 101.725 44.872C101.376 44.872 101.085 44.5813 101.085 44.219V40.1216C101.085 39.3082 100.722 38.9159 99.8645 38.9159C99.1526 38.9159 98.4557 39.7166 98.1211 40.2255V44.219C98.1214 44.3048 98.1048 44.3899 98.0721 44.4693C98.0394 44.5487 97.9913 44.6209 97.9306 44.6816C97.8699 44.7423 97.7977 44.7904 97.7183 44.8231C97.6389 44.8558 97.5539 44.8724 97.468 44.872C97.1195 44.872 96.8137 44.5813 96.8137 44.219V40.1216C96.8137 39.3082 96.4653 38.9159 95.5791 38.9159C94.8961 38.9159 94.2141 39.7651 93.8645 40.2728V44.2189C93.8645 44.5812 93.5599 44.872 93.2114 44.872C92.848 44.872 92.5572 44.5812 92.5572 44.2189V38.3643C92.5572 38.0009 92.848 37.7101 93.1964 37.7101C93.5599 37.7101 93.8645 38.0009 93.8645 38.3643V38.7705C94.1553 38.3343 95.0853 37.6085 96.1307 37.6085C97.1922 37.6085 97.8164 38.1601 98.0345 38.9159C98.4407 38.2616 99.3903 37.6085 100.422 37.6085C101.715 37.6085 102.393 38.3205 102.393 39.7293Z" fill="#EE2841"/>
<path d="M81.6171 37.6083C82.6198 37.6083 83.3167 37.9279 83.8544 38.4218C83.9698 38.5232 84.0575 38.6975 84.0575 38.858C84.0575 39.1914 83.7956 39.4533 83.4771 39.4533C83.3167 39.4533 83.1863 39.3945 83.0836 39.3078C82.6775 38.9305 82.2275 38.7701 81.6748 38.7701C80.2948 38.7701 79.4086 39.8305 79.4086 41.2832C79.4086 42.7359 80.296 43.7651 81.6748 43.8113C82.606 43.844 83.544 43.1663 84.2975 41.9767C84.391 41.8289 84.5282 41.5543 84.6413 41.4113C84.8548 41.1414 85.0071 41.2706 85.1329 41.4015C85.3636 41.6425 85.3613 42.2149 85.2114 42.4965C84.7879 43.2869 84.4314 43.655 84.0264 44.0507C83.4621 44.5977 82.6198 44.9726 81.6171 44.9726C79.4963 44.9726 78.0436 43.3896 78.0436 41.2826C78.0436 39.1769 79.4963 37.6076 81.6171 37.6076V37.6083ZM60.4556 43.7235C60.4556 43.9705 59.7483 44.5231 59.2395 44.7701C58.9499 44.9107 58.6579 44.9732 58.2368 44.9732C57.1326 44.9732 56.566 44.3489 56.566 43.2447V38.9304H55.8979C55.5933 38.9304 55.3164 38.6685 55.3164 38.3489C55.3164 38.0444 55.5933 37.7824 55.8979 37.7824H56.566V36.4462C56.5657 36.3602 56.5824 36.275 56.6151 36.1954C56.6479 36.1159 56.696 36.0436 56.7569 35.9828C56.8177 35.922 56.8899 35.8738 56.9695 35.8411C57.049 35.8083 57.1342 35.7916 57.2202 35.792C57.5687 35.792 57.8733 36.0828 57.8733 36.4462V37.7824H58.7895C59.108 37.7824 59.3699 38.0444 59.3699 38.3489C59.3699 38.6685 59.108 38.9304 58.7895 38.9304H57.8733V42.954C57.8733 43.4479 58.1064 43.8113 58.5564 43.8113C59.356 43.8113 59.9849 42.5697 60.3391 42.5697C60.6726 42.5697 60.4556 43.404 60.4556 43.7236" fill="#EE2841"/>
</svg>
